<mxfile host="Electron" modified="2024-05-28T14:37:00.346Z" agent="Mozilla/5.0 (Windows NT 10.0; Win64; x64) AppleWebKit/537.36 (KHTML, like Gecko) draw.io/24.4.0 Chrome/120.0.6099.109 Electron/28.1.0 Safari/537.36" etag="p_izCqhKSBQeYZkpQlMT" version="24.4.0" type="device">
  <diagram id="scW4_woyN69EGaP7LvF8" name="Migración de SAP">
    <mxGraphModel dx="1017" dy="539" grid="1" gridSize="10" guides="1" tooltips="1" connect="1" arrows="1" fold="1" page="1" pageScale="1" pageWidth="827" pageHeight="1169" math="0" shadow="0">
      <root>
        <mxCell id="0" />
        <mxCell id="1" parent="0" />
        <mxCell id="SXOoqiEJhMIUB00zCfSz-1" value="Proceso de migración" style="swimlane;childLayout=stackLayout;resizeParent=1;resizeParentMax=0;startSize=20;horizontal=0;horizontalStack=1;sketch=1;curveFitting=1;jiggle=2;labelBackgroundColor=none;" parent="1" vertex="1">
          <mxGeometry x="10" y="10" width="810" height="320" as="geometry">
            <mxRectangle x="330" y="40" width="40" height="50" as="alternateBounds" />
          </mxGeometry>
        </mxCell>
        <mxCell id="SXOoqiEJhMIUB00zCfSz-2" value="Paso 1: Obtener &#xa;orígenes de datos" style="swimlane;startSize=40;sketch=1;curveFitting=1;jiggle=2;labelBackgroundColor=none;" parent="SXOoqiEJhMIUB00zCfSz-1" vertex="1">
          <mxGeometry x="20" width="190" height="320" as="geometry" />
        </mxCell>
        <mxCell id="SXOoqiEJhMIUB00zCfSz-5" value="«Base de datos»&lt;br&gt;&lt;b&gt;Base de datos SAP&lt;/b&gt;" style="html=1;dropTarget=0;whiteSpace=wrap;sketch=1;curveFitting=1;jiggle=2;labelBackgroundColor=none;" parent="SXOoqiEJhMIUB00zCfSz-2" vertex="1">
          <mxGeometry x="20" y="100" width="150" height="50" as="geometry" />
        </mxCell>
        <mxCell id="SXOoqiEJhMIUB00zCfSz-6" value="" style="shape=module;jettyWidth=8;jettyHeight=4;sketch=1;curveFitting=1;jiggle=2;labelBackgroundColor=none;" parent="SXOoqiEJhMIUB00zCfSz-5" vertex="1">
          <mxGeometry x="1" width="20" height="20" relative="1" as="geometry">
            <mxPoint x="-27" y="7" as="offset" />
          </mxGeometry>
        </mxCell>
        <mxCell id="SXOoqiEJhMIUB00zCfSz-7" value="«File System»&lt;br&gt;&lt;b&gt;Documentos SAP&lt;/b&gt;" style="html=1;dropTarget=0;whiteSpace=wrap;sketch=1;curveFitting=1;jiggle=2;labelBackgroundColor=none;" parent="SXOoqiEJhMIUB00zCfSz-2" vertex="1">
          <mxGeometry x="17.5" y="180" width="152.5" height="40" as="geometry" />
        </mxCell>
        <mxCell id="SXOoqiEJhMIUB00zCfSz-8" value="" style="shape=module;jettyWidth=8;jettyHeight=4;sketch=1;curveFitting=1;jiggle=2;labelBackgroundColor=none;" parent="SXOoqiEJhMIUB00zCfSz-7" vertex="1">
          <mxGeometry x="1" width="20" height="20" relative="1" as="geometry">
            <mxPoint x="-27" y="7" as="offset" />
          </mxGeometry>
        </mxCell>
        <mxCell id="SXOoqiEJhMIUB00zCfSz-3" value="Paso 2: Extraer &#xa;información" style="swimlane;startSize=40;sketch=1;curveFitting=1;jiggle=2;labelBackgroundColor=none;" parent="SXOoqiEJhMIUB00zCfSz-1" vertex="1">
          <mxGeometry x="210" width="150" height="320" as="geometry" />
        </mxCell>
        <mxCell id="SXOoqiEJhMIUB00zCfSz-10" value="«Microservicio»&lt;br&gt;&lt;b&gt;Extraer Datos&lt;/b&gt;" style="html=1;dropTarget=0;whiteSpace=wrap;sketch=1;curveFitting=1;jiggle=2;labelBackgroundColor=none;" parent="SXOoqiEJhMIUB00zCfSz-3" vertex="1">
          <mxGeometry x="10" y="100" width="130" height="30" as="geometry" />
        </mxCell>
        <mxCell id="SXOoqiEJhMIUB00zCfSz-11" value="" style="shape=module;jettyWidth=8;jettyHeight=4;sketch=1;curveFitting=1;jiggle=2;labelBackgroundColor=none;" parent="SXOoqiEJhMIUB00zCfSz-10" vertex="1">
          <mxGeometry x="1" width="20" height="20" relative="1" as="geometry">
            <mxPoint x="-27" y="7" as="offset" />
          </mxGeometry>
        </mxCell>
        <mxCell id="SXOoqiEJhMIUB00zCfSz-4" value="Paso 3: Transformar&#xa; información" style="swimlane;startSize=40;sketch=1;curveFitting=1;jiggle=2;labelBackgroundColor=none;" parent="SXOoqiEJhMIUB00zCfSz-1" vertex="1">
          <mxGeometry x="360" width="140" height="320" as="geometry" />
        </mxCell>
        <mxCell id="SXOoqiEJhMIUB00zCfSz-12" value="«Asissto Core»&lt;br&gt;&lt;b&gt;Transformar datos&lt;/b&gt;" style="html=1;dropTarget=0;whiteSpace=wrap;sketch=1;curveFitting=1;jiggle=2;labelBackgroundColor=none;" parent="SXOoqiEJhMIUB00zCfSz-4" vertex="1">
          <mxGeometry x="10" y="100" width="120" height="30" as="geometry" />
        </mxCell>
        <mxCell id="SXOoqiEJhMIUB00zCfSz-13" value="" style="shape=module;jettyWidth=8;jettyHeight=4;sketch=1;curveFitting=1;jiggle=2;labelBackgroundColor=none;" parent="SXOoqiEJhMIUB00zCfSz-12" vertex="1">
          <mxGeometry x="1" width="20" height="20" relative="1" as="geometry">
            <mxPoint x="-27" y="7" as="offset" />
          </mxGeometry>
        </mxCell>
        <mxCell id="Oe255QRz0UvvZrYtvkjB-1" value="" style="rounded=0;orthogonalLoop=1;jettySize=auto;html=1;dashed=1;sketch=1;curveFitting=1;jiggle=2;labelBackgroundColor=none;fontColor=default;" parent="SXOoqiEJhMIUB00zCfSz-1" source="SXOoqiEJhMIUB00zCfSz-10" target="SXOoqiEJhMIUB00zCfSz-6" edge="1">
          <mxGeometry relative="1" as="geometry" />
        </mxCell>
        <mxCell id="Oe255QRz0UvvZrYtvkjB-2" style="rounded=0;orthogonalLoop=1;jettySize=auto;html=1;exitX=0;exitY=0.5;exitDx=0;exitDy=0;entryX=1;entryY=0.5;entryDx=0;entryDy=0;dashed=1;sketch=1;curveFitting=1;jiggle=2;labelBackgroundColor=none;fontColor=default;" parent="SXOoqiEJhMIUB00zCfSz-1" source="Oe255QRz0UvvZrYtvkjB-15" target="SXOoqiEJhMIUB00zCfSz-7" edge="1">
          <mxGeometry relative="1" as="geometry" />
        </mxCell>
        <mxCell id="Oe255QRz0UvvZrYtvkjB-3" style="rounded=0;orthogonalLoop=1;jettySize=auto;html=1;exitX=0;exitY=0.5;exitDx=0;exitDy=0;entryX=1;entryY=0.5;entryDx=0;entryDy=0;dashed=1;sketch=1;curveFitting=1;jiggle=2;labelBackgroundColor=none;fontColor=default;" parent="SXOoqiEJhMIUB00zCfSz-1" source="SXOoqiEJhMIUB00zCfSz-12" target="SXOoqiEJhMIUB00zCfSz-10" edge="1">
          <mxGeometry relative="1" as="geometry" />
        </mxCell>
        <mxCell id="Oe255QRz0UvvZrYtvkjB-4" value="Paso 4: Disponer &#xa;la información" style="swimlane;startSize=40;sketch=1;curveFitting=1;jiggle=2;labelBackgroundColor=none;" parent="SXOoqiEJhMIUB00zCfSz-1" vertex="1">
          <mxGeometry x="500" width="150" height="320" as="geometry" />
        </mxCell>
        <mxCell id="Oe255QRz0UvvZrYtvkjB-17" value="" style="edgeStyle=orthogonalEdgeStyle;rounded=0;orthogonalLoop=1;jettySize=auto;html=1;dashed=1;sketch=1;curveFitting=1;jiggle=2;labelBackgroundColor=none;fontColor=default;" parent="Oe255QRz0UvvZrYtvkjB-4" source="Oe255QRz0UvvZrYtvkjB-5" target="Oe255QRz0UvvZrYtvkjB-15" edge="1">
          <mxGeometry relative="1" as="geometry" />
        </mxCell>
        <mxCell id="Oe255QRz0UvvZrYtvkjB-5" value="«Microservicio»&lt;br&gt;&lt;b style=&quot;&quot;&gt;Bitácora Antigua&lt;/b&gt;" style="html=1;dropTarget=0;whiteSpace=wrap;sketch=1;curveFitting=1;jiggle=2;labelBackgroundColor=none;" parent="Oe255QRz0UvvZrYtvkjB-4" vertex="1">
          <mxGeometry x="10" y="100" width="130" height="30" as="geometry" />
        </mxCell>
        <mxCell id="Oe255QRz0UvvZrYtvkjB-6" value="" style="shape=module;jettyWidth=8;jettyHeight=4;sketch=1;curveFitting=1;jiggle=2;labelBackgroundColor=none;" parent="Oe255QRz0UvvZrYtvkjB-5" vertex="1">
          <mxGeometry x="1" width="20" height="20" relative="1" as="geometry">
            <mxPoint x="-27" y="7" as="offset" />
          </mxGeometry>
        </mxCell>
        <mxCell id="Oe255QRz0UvvZrYtvkjB-15" value="«Job»&lt;br&gt;&lt;b&gt;Tarea temporal&lt;/b&gt;" style="html=1;dropTarget=0;whiteSpace=wrap;sketch=1;curveFitting=1;jiggle=2;labelBackgroundColor=none;" parent="Oe255QRz0UvvZrYtvkjB-4" vertex="1">
          <mxGeometry x="10" y="186" width="130" height="30" as="geometry" />
        </mxCell>
        <mxCell id="Oe255QRz0UvvZrYtvkjB-16" value="" style="shape=module;jettyWidth=8;jettyHeight=4;sketch=1;curveFitting=1;jiggle=2;labelBackgroundColor=none;" parent="Oe255QRz0UvvZrYtvkjB-15" vertex="1">
          <mxGeometry x="1" width="20" height="20" relative="1" as="geometry">
            <mxPoint x="-27" y="7" as="offset" />
          </mxGeometry>
        </mxCell>
        <mxCell id="Oe255QRz0UvvZrYtvkjB-7" value="Etapa 3: Crear Asistencia &#xa;en sistema core" style="swimlane;startSize=40;sketch=1;curveFitting=1;jiggle=2;labelBackgroundColor=none;" parent="SXOoqiEJhMIUB00zCfSz-1" vertex="1">
          <mxGeometry x="650" width="160" height="320" as="geometry" />
        </mxCell>
        <mxCell id="Oe255QRz0UvvZrYtvkjB-8" value="«Asissto Core»&lt;br&gt;&lt;b&gt;Bitacora&lt;/b&gt;" style="html=1;dropTarget=0;whiteSpace=wrap;sketch=1;curveFitting=1;jiggle=2;labelBackgroundColor=none;" parent="Oe255QRz0UvvZrYtvkjB-7" vertex="1">
          <mxGeometry x="10" y="100" width="120" height="30" as="geometry" />
        </mxCell>
        <mxCell id="Oe255QRz0UvvZrYtvkjB-9" value="" style="shape=module;jettyWidth=8;jettyHeight=4;sketch=1;curveFitting=1;jiggle=2;labelBackgroundColor=none;" parent="Oe255QRz0UvvZrYtvkjB-8" vertex="1">
          <mxGeometry x="1" width="20" height="20" relative="1" as="geometry">
            <mxPoint x="-27" y="7" as="offset" />
          </mxGeometry>
        </mxCell>
        <mxCell id="Oe255QRz0UvvZrYtvkjB-12" style="rounded=0;orthogonalLoop=1;jettySize=auto;html=1;exitX=0;exitY=0.5;exitDx=0;exitDy=0;entryX=1;entryY=0.5;entryDx=0;entryDy=0;dashed=1;sketch=1;curveFitting=1;jiggle=2;labelBackgroundColor=none;fontColor=default;" parent="SXOoqiEJhMIUB00zCfSz-1" source="Oe255QRz0UvvZrYtvkjB-8" target="Oe255QRz0UvvZrYtvkjB-15" edge="1">
          <mxGeometry relative="1" as="geometry" />
        </mxCell>
        <mxCell id="Oe255QRz0UvvZrYtvkjB-14" style="edgeStyle=orthogonalEdgeStyle;rounded=0;orthogonalLoop=1;jettySize=auto;html=1;exitX=0;exitY=0.5;exitDx=0;exitDy=0;entryX=1;entryY=0.5;entryDx=0;entryDy=0;sketch=1;curveFitting=1;jiggle=2;labelBackgroundColor=none;fontColor=default;" parent="SXOoqiEJhMIUB00zCfSz-1" source="Oe255QRz0UvvZrYtvkjB-5" target="SXOoqiEJhMIUB00zCfSz-12" edge="1">
          <mxGeometry relative="1" as="geometry" />
        </mxCell>
      </root>
    </mxGraphModel>
  </diagram>
</mxfile>
